<svg width="1280" height="420" viewBox="0 0 1280 420" fill="none" xmlns="http://www.w3.org/2000/svg" role="img" aria-labelledby="title desc">
  <title id="title">Anime coding banner for Gabriel / JGsamaaa</title>
  <desc id="desc">A neon anime-inspired night skyline with a developer silhouette, laptop, moon, manga panels, and code UI shapes.</desc>
  <defs>
    <linearGradient id="bg" x1="0" y1="0" x2="1280" y2="420" gradientUnits="userSpaceOnUse">
      <stop offset="0" stop-color="#090B18" />
      <stop offset="0.42" stop-color="#21123B" />
      <stop offset="0.72" stop-color="#41174F" />
      <stop offset="1" stop-color="#FF3864" />
    </linearGradient>
    <linearGradient id="panel" x1="155" y1="70" x2="1110" y2="350" gradientUnits="userSpaceOnUse">
      <stop stop-color="#FFFFFF" stop-opacity="0.16" />
      <stop offset="1" stop-color="#FFFFFF" stop-opacity="0.04" />
    </linearGradient>
    <radialGradient id="moonGlow" cx="0" cy="0" r="1" gradientUnits="userSpaceOnUse" gradientTransform="translate(1048 104) rotate(90) scale(138)">
      <stop stop-color="#FFEDF4" stop-opacity="0.95" />
      <stop offset="0.46" stop-color="#FF6F91" stop-opacity="0.32" />
      <stop offset="1" stop-color="#FF3864" stop-opacity="0" />
    </radialGradient>
    <filter id="softGlow" x="-60" y="-60" width="1400" height="540" filterUnits="userSpaceOnUse" color-interpolation-filters="sRGB">
      <feGaussianBlur stdDeviation="16" result="blur" />
      <feColorMatrix in="blur" type="matrix" values="1 0 0 0 1 0 1 0 0 0.22 0 0 1 0 0.47 0 0 0 0.65 0" />
    </filter>
    <pattern id="grid" width="42" height="42" patternUnits="userSpaceOnUse">
      <path d="M 42 0 L 0 0 0 42" stroke="#FFFFFF" stroke-opacity="0.06" stroke-width="1" />
    </pattern>
  </defs>

  <rect width="1280" height="420" rx="0" fill="url(#bg)" />
  <rect width="1280" height="420" fill="url(#grid)" />
  <circle cx="1048" cy="104" r="138" fill="url(#moonGlow)" />
  <circle cx="1048" cy="104" r="58" fill="#FFE8F1" opacity="0.9" />
  <circle cx="1020" cy="82" r="58" fill="#24123A" opacity="0.28" />

  <g opacity="0.32" stroke="#FFFFFF" stroke-width="3">
    <path d="M112 72H364L284 196H32L112 72Z" fill="url(#panel)" />
    <path d="M978 220H1228L1152 348H900L978 220Z" fill="url(#panel)" />
    <path d="M424 38H846L790 128H368L424 38Z" fill="url(#panel)" />
  </g>

  <g opacity="0.65">
    <rect x="0" y="306" width="1280" height="114" fill="#070914" />
    <rect x="36" y="258" width="76" height="162" fill="#101426" />
    <rect x="126" y="284" width="52" height="136" fill="#141831" />
    <rect x="206" y="236" width="92" height="184" fill="#11162A" />
    <rect x="328" y="278" width="66" height="142" fill="#151A31" />
    <rect x="890" y="250" width="96" height="170" fill="#11162A" />
    <rect x="1014" y="288" width="54" height="132" fill="#151A31" />
    <rect x="1102" y="238" width="88" height="182" fill="#101426" />
    <rect x="1210" y="282" width="48" height="138" fill="#151A31" />
  </g>

  <g opacity="0.26">
    <rect x="58" y="280" width="11" height="32" rx="2" fill="#6DF2FF" />
    <rect x="86" y="280" width="11" height="32" rx="2" fill="#FF7AA8" />
    <rect x="226" y="262" width="12" height="28" rx="2" fill="#FFDD72" />
    <rect x="258" y="262" width="12" height="28" rx="2" fill="#6DF2FF" />
    <rect x="918" y="278" width="12" height="28" rx="2" fill="#6DF2FF" />
    <rect x="952" y="278" width="12" height="28" rx="2" fill="#FF7AA8" />
    <rect x="1130" y="264" width="12" height="28" rx="2" fill="#FFDD72" />
    <rect x="1164" y="264" width="12" height="28" rx="2" fill="#6DF2FF" />
  </g>

  <g filter="url(#softGlow)" opacity="0.65">
    <path d="M402 302C462 232 510 190 568 168C650 136 728 160 802 226C846 266 896 302 960 324" stroke="#FF3864" stroke-width="12" stroke-linecap="round" />
    <path d="M338 330C452 286 552 262 650 262C750 262 842 286 954 330" stroke="#6DF2FF" stroke-width="8" stroke-linecap="round" />
  </g>

  <g transform="translate(456 88)">
    <rect x="155" y="132" width="214" height="126" rx="16" fill="#0C1022" stroke="#6DF2FF" stroke-opacity="0.45" stroke-width="2" />
    <rect x="176" y="156" width="172" height="14" rx="7" fill="#FF3864" opacity="0.9" />
    <rect x="176" y="186" width="128" height="12" rx="6" fill="#6DF2FF" opacity="0.85" />
    <rect x="176" y="214" width="150" height="12" rx="6" fill="#FFDD72" opacity="0.78" />
    <path d="M145 290H382L354 242H173L145 290Z" fill="#11172F" stroke="#FF7AA8" stroke-opacity="0.6" stroke-width="2" />
    <path d="M210 244H318L334 276H194L210 244Z" fill="#060916" />

    <path d="M186 128C196 90 224 64 266 60C310 56 342 82 352 128C322 112 292 106 262 108C232 110 206 116 186 128Z" fill="#090B18" />
    <path d="M206 80C232 34 298 30 328 84C306 68 282 62 258 66C236 70 218 76 206 80Z" fill="#FF3864" opacity="0.85" />
    <path d="M220 112C228 82 256 64 288 68C318 72 338 94 338 124C338 162 312 190 278 190C246 190 220 160 220 112Z" fill="#F5C7D5" />
    <path d="M206 102C242 76 290 72 340 104C330 82 312 58 278 56C244 54 218 72 206 102Z" fill="#0B0E1D" />
    <path d="M202 130C210 118 222 110 240 106C232 126 234 148 244 168C222 160 206 146 202 130Z" fill="#0B0E1D" />
    <path d="M336 126C326 114 314 108 296 106C306 128 304 152 292 172C316 164 332 148 336 126Z" fill="#0B0E1D" />
    <path d="M224 260C232 206 252 182 278 182C304 182 326 206 336 260H224Z" fill="#161C36" />
    <path d="M248 206L278 236L308 206" stroke="#FF7AA8" stroke-width="5" stroke-linecap="round" stroke-linejoin="round" />
  </g>

  <g font-family="'Segoe UI', Arial, sans-serif" text-anchor="middle">
    <text x="640" y="78" fill="#FFFFFF" font-size="44" font-weight="800" letter-spacing="2">GABRIEL / JGSAMAAA</text>
    <text x="640" y="122" fill="#FFDBE8" font-size="22" font-weight="600" letter-spacing="5">ANIME CODING ARC</text>
    <text x="640" y="366" fill="#FFFFFF" font-size="18" font-weight="600" opacity="0.86">frontend | games | manga | one repo at a time</text>
  </g>

  <g stroke="#FFFFFF" stroke-opacity="0.22" stroke-width="2">
    <path d="M90 128L214 92" />
    <path d="M86 154L270 100" />
    <path d="M1010 256L1192 308" />
    <path d="M974 286L1170 344" />
  </g>
</svg>
